<?xml version="1.0" standalone="no"?>
<!DOCTYPE svg PUBLIC "-//W3C//DTD SVG 20010904//EN"
 "http://www.w3.org/TR/2001/REC-SVG-20010904/DTD/svg10.dtd">
<svg version="1.0" xmlns="http://www.w3.org/2000/svg"
 width="3000.000000pt" height="2000.000000pt" viewBox="0 0 3000.000000 2000.000000"
 preserveAspectRatio="xMidYMid meet">

<g transform="translate(0.000000,2000.000000) scale(0.100000,-0.100000)"
fill="#000000" stroke="none">
<path d="M14515 16659 c-1862 -52 -3481 -431 -4924 -1154 l-211 -105 0 -3283
c0 -1967 4 -3365 10 -3489 22 -475 90 -861 222 -1268 248 -765 719 -1440 1349
-1932 567 -443 2003 -1193 3869 -2019 85 -38 162 -69 171 -69 9 0 148 59 309
131 1747 779 3114 1492 3685 1922 348 262 662 598 910 972 219 332 350 601
475 975 113 339 174 639 222 1090 9 87 13 948 15 3543 l4 3428 -249 122 c-475
235 -901 409 -1402 572 -1299 422 -2792 611 -4455 564z m1050 -119 c1249 -49
2319 -226 3350 -552 298 -94 865 -308 873 -330 2 -4 7 -6 12 -3 5 3 16 -2 24
-11 9 -8 16 -12 16 -8 0 3 7 1 16 -7 8 -7 13 -21 11 -31 -3 -10 -1 -21 5 -24
5 -3 1 -12 -9 -20 -17 -13 -17 -14 1 -8 16 6 17 4 8 -13 -6 -11 -9 -23 -6 -26
10 -10 11 -42 3 -64 -5 -12 -5 -24 -1 -27 4 -2 7 -25 6 -50 -1 -26 3 -49 8
-53 6 -3 4 -9 -3 -14 -11 -7 -11 -9 -1 -9 7 0 10 -5 7 -10 -4 -6 -12 -7 -18
-3 -7 3 -4 -3 6 -14 9 -11 14 -22 11 -25 -3 -3 -1 -8 4 -11 4 -4 8 20 6 51 -1
31 -3 57 -4 57 -1 0 -3 39 -4 88 -1 55 2 87 9 87 6 0 7 3 0 8 -13 9 -16 92 -3
92 5 0 7 -4 3 -9 -3 -5 -2 -12 3 -15 7 -4 8 -75 2 -83 -7 -8 -5 -30 2 -40 5
-6 4 -14 -2 -18 -6 -4 -7 -12 -2 -18 4 -7 8 -57 8 -112 l-1 -100 -65 2 c-36 1
-150 9 -255 17 -965 77 -1990 88 -2830 31 -362 -25 -760 -67 -1095 -116 -366
-53 -903 -157 -893 -172 3 -6 1 -7 -6 -3 -17 11 -92 -4 -84 -16 4 -7 1 -8 -6
-3 -18 10 -132 -15 -124 -28 3 -6 1 -7 -6 -3 -14 9 -121 -14 -121 -26 0 -5 -9
-6 -20 -3 -22 7 -29 -18 -8 -31 8 -5 9 -1 5 12 -6 17 -5 17 5 3 11 -16 13 -16
27 0 9 9 15 15 14 12 -2 -2 2 -10 8 -17 11 -14 4 -34 -12 -34 -5 0 -9 5 -9 11
0 5 4 7 10 4 6 -4 7 1 3 11 -5 14 -8 13 -18 -7 -12 -21 -20 -25 -70 -34 -11
-2 -20 -4 -20 -5 0 -1 -8 -3 -17 -5 -21 -4 -23 8 -6 35 7 10 10 21 7 24 -2 3
-34 -3 -69 -12 -36 -9 -57 -18 -47 -20 9 -2 15 -7 12 -12 -3 -5 -12 -7 -20 -3
-11 4 -15 -3 -15 -27 0 -27 -3 -32 -20 -27 -10 3 -20 2 -22 -2 -2 -4 -55 -22
-118 -40 -186 -54 -631 -204 -820 -276 -1138 -437 -2173 -1066 -3047 -1853
l-83 -74 0 -1834 0 -1834 -32 -2 -33 -1 31 -4 31 -4 7 -172 c46 -1216 565
-2206 1487 -2839 516 -354 1580 -909 2909 -1516 553 -252 522 -240 555 -226
17 7 145 64 285 127 1557 700 2768 1335 3255 1705 378 288 700 661 925 1069
264 479 413 1053 437 1681 l6 172 30 0 30 0 -6 -187 c-31 -912 -335 -1710
-890 -2332 -31 -35 -54 -68 -50 -75 3 -6 2 -8 -2 -3 -5 4 -49 -32 -99 -81 -50
-48 -125 -118 -166 -156 -41 -38 -57 -54 -35 -36 22 17 59 50 83 71 23 22 46
38 51 35 4 -3 7 -25 6 -48 -1 -24 3 -49 8 -55 5 -7 6 -13 2 -13 -4 0 -1 -8 6
-17 13 -16 12 -17 -3 -4 -10 7 -15 18 -11 24 4 6 -2 8 -16 4 -17 -4 -21 -2
-17 9 3 9 1 12 -4 9 -10 -6 -3 -54 10 -68 4 -5 11 -4 14 2 4 6 2 11 -3 11 -6
0 -11 8 -11 17 0 15 2 14 14 -3 13 -17 12 -22 -10 -45 -18 -19 -21 -28 -12
-37 8 -8 8 -15 0 -25 -7 -8 -8 -17 -4 -21 4 -4 0 -6 -8 -4 -8 1 -15 -3 -16 -9
-1 -7 -2 -14 -3 -15 -6 -8 -7 -87 -2 -84 4 3 7 -11 7 -29 0 -18 -3 -33 -6 -32
-3 1 -17 -10 -32 -24 -22 -21 -24 -28 -15 -44 11 -20 18 -89 8 -79 -3 3 -6 18
-6 32 -1 15 -5 36 -11 47 -9 18 -11 36 -4 50 1 3 4 10 5 15 1 6 4 12 5 15 1 3
3 9 4 14 0 5 4 12 8 16 4 4 4 14 1 23 -4 15 -3 15 7 2 9 -12 11 -12 8 -1 -3 8
-10 17 -18 19 -9 3 -11 -2 -7 -17 3 -11 1 -21 -4 -21 -5 0 -9 -8 -9 -18 0 -10
-3 -22 -7 -26 -5 -4 -9 -12 -9 -17 -1 -5 -2 -10 -4 -11 -1 -2 -3 -12 -6 -23
-2 -11 -6 -35 -10 -52 -3 -18 -10 -31 -14 -28 -5 3 -7 -3 -5 -12 1 -10 -2 -24
-8 -30 -5 -7 -6 -13 -2 -13 4 0 2 -7 -5 -15 -7 -8 -9 -15 -6 -15 4 0 4 -5 0
-12 -4 -7 -9 -23 -10 -36 -2 -13 -8 -30 -14 -37 -8 -10 -8 -15 1 -21 8 -5 9
-3 4 6 -5 9 -4 11 4 6 6 -4 11 -4 10 1 -1 4 -1 17 1 28 l1 20 8 -20 c11 -27
-18 -68 -37 -53 -9 8 -11 7 -7 -4 9 -23 -183 -144 -585 -370 -701 -394 -1720
-892 -2873 -1404 l-187 -83 -278 123 c-1730 771 -3048 1457 -3629 1889 -218
162 -500 433 -675 647 -543 666 -845 1466 -908 2408 -6 100 -10 1307 -10 3477
l0 3324 113 59 c138 74 368 181 592 277 1212 517 2613 811 4170 874 293 12
903 12 1190 1z m4425 -4520 l0 -3160 -30 0 -30 0 0 3135 0 3136 28 24 c15 13
28 25 30 25 1 0 2 -1422 2 -3160z m-5196 2920 c-6 -6 -10 -3 -10 10 0 13 4 16
10 10 7 -7 7 -13 0 -20z m-73 -4 c1 18 2 18 6 0 4 -15 7 -16 15 -5 8 12 9 11
5 -1 -2 -8 -12 -15 -23 -15 -10 0 -23 -3 -29 -6 -18 -10 -38 -4 -42 11 -4 13
-3 13 6 0 10 -14 16 -7 12 14 -1 5 6 3 15 -5 16 -13 17 -12 11 6 -7 20 -7 20
8 1 15 -20 15 -20 16 0z m-107 -8 c4 4 7 3 6 -3 -4 -20 1 -30 9 -17 7 11 9 11
14 -1 4 -11 0 -15 -14 -12 -10 2 -19 -2 -19 -8 0 -7 -4 -6 -10 3 -9 13 -10 13
-10 0 0 -12 -2 -12 -9 -2 -6 11 -10 10 -15 -4 -3 -9 -9 -14 -13 -11 -3 4 -12
2 -20 -5 -8 -6 -13 -7 -12 -2 4 23 -2 26 -16 8 -11 -15 -15 -16 -15 -4 -1 10
-4 9 -9 -4 -7 -19 -8 -19 -13 2 -4 13 -2 20 6 19 6 -1 10 3 9 8 -1 7 20 11 52
10 30 0 53 4 52 10 -1 6 -6 9 -10 7 -5 -1 -6 2 -2 8 5 8 11 8 19 1 7 -6 16 -7
20 -3z m-312 -80 c-7 -7 -12 -21 -12 -31 0 -12 -5 -17 -14 -14 -8 3 -17 3 -20
-1 -4 -3 -12 -7 -19 -8 -7 -1 -20 -5 -29 -9 -14 -6 -18 -2 -18 15 0 11 4 19 9
16 10 -6 34 18 26 26 -5 5 5 7 50 10 14 1 25 6 25 12 0 5 3 6 7 3 4 -4 1 -13
-5 -19z m1119 -2453 c383 -51 677 -192 934 -450 185 -185 310 -380 414 -645
80 -205 97 -283 71 -315 -8 -10 -8 -15 1 -21 8 -5 9 -3 4 6 -6 9 -4 11 5 5 8
-5 11 -4 7 1 -3 6 -2 16 3 23 5 9 7 3 7 -17 -1 -17 -6 -28 -11 -24 -5 3 -7 -2
-3 -11 3 -9 1 -19 -6 -23 -7 -4 -9 -3 -4 1 4 5 0 19 -9 33 -11 17 -13 27 -5
35 6 6 11 15 11 21 0 5 -7 1 -15 -10 -11 -15 -14 -16 -15 -4 0 9 6 22 13 30
10 12 9 12 -5 1 -16 -12 -18 -11 -18 4 0 10 -2 16 -5 13 -8 -8 18 -98 26 -92
4 2 7 -6 7 -18 -1 -13 -1 -36 0 -52 2 -26 4 -27 20 -15 15 13 16 12 3 -4 -11
-14 -11 -30 3 -105 66 -366 73 -870 15 -1267 -114 -790 -445 -1349 -952 -1607
-209 -107 -412 -152 -687 -152 -174 0 -233 6 -392 40 l-28 6 0 -1006 0 -1006
-477 0 -477 0 -33 -32 -33 -32 0 3170 0 3169 68 42 c161 100 358 183 546 233
165 43 243 56 481 84 87 10 441 4 536 -9z m3318 -1 c253 -37 511 -132 693
-255 109 -74 98 -9 98 -581 l-1 -503 -27 60 -27 60 -5 435 -6 435 -2 -413 -2
-413 -82 70 c-150 128 -351 232 -545 282 -106 27 -322 33 -413 10 -134 -33
-273 -126 -314 -212 -9 -19 -11 -27 -4 -19 7 8 25 16 39 16 30 1 29 0 -4 -93
-9 -23 -19 -62 -22 -87 -7 -42 -10 -46 -35 -46 -24 0 -29 5 -33 28 -2 15 -4
-4 -4 -43 0 -38 2 -53 4 -32 4 33 7 37 32 37 27 0 28 -2 35 -62 13 -129 100
-253 249 -356 40 -27 158 -100 262 -162 213 -127 303 -186 420 -274 344 -260
529 -527 600 -861 40 -189 40 -502 -1 -688 -39 -181 -134 -405 -168 -399 -10
2 -15 -1 -12 -7 4 -5 1 -13 -5 -17 -7 -4 -9 -3 -5 4 3 6 2 13 -4 17 -6 4 -8
11 -5 16 4 5 8 19 10 31 3 12 10 25 16 28 6 4 10 9 8 11 -1 2 14 47 34 99 59
155 97 324 97 431 0 32 4 49 13 50 10 0 10 2 0 6 -10 3 -13 41 -13 139 0 75
-3 133 -7 131 -5 -3 -8 16 -8 41 -1 58 -25 172 -36 172 -5 0 -9 -9 -9 -20 0
-11 6 -20 13 -20 8 0 7 -3 -3 -10 -8 -5 -15 -19 -16 -32 -1 -13 -7 -45 -12
-73 -6 -27 -8 -53 -6 -57 2 -3 0 -10 -6 -13 -8 -5 -7 -12 2 -23 11 -13 10 -15
-4 -9 -24 8 -23 0 1 -12 17 -9 18 -6 15 36 -1 26 1 41 5 35 3 -6 7 8 7 31 1
58 7 87 16 81 4 -3 4 -12 1 -20 -3 -9 0 -20 8 -26 11 -8 10 -9 -4 -4 -16 5
-17 -1 -14 -52 2 -31 8 -55 13 -52 5 3 8 9 6 13 -1 5 2 6 8 2 6 -3 7 -12 3
-18 -11 -17 -11 -29 0 -52 7 -15 7 -17 -2 -9 -7 6 -14 20 -15 30 -3 19 -21 23
-21 5 0 -5 -3 -13 -7 -17 -16 -15 -7 -26 10 -13 14 11 15 11 5 -1 -10 -10 -10
-17 -1 -28 7 -8 13 -21 15 -30 2 -19 -26 -54 -38 -47 -13 9 -21 -33 -10 -54 7
-12 7 -22 2 -25 -10 -7 -9 -25 2 -43 4 -6 3 -15 -3 -18 -6 -4 -9 -3 -8 2 2 4
-1 9 -6 11 -5 1 -11 -9 -12 -24 -2 -20 0 -23 10 -15 10 8 16 7 25 -3 8 -10 9
-16 1 -21 -6 -4 -10 -3 -9 2 4 23 -3 24 -26 3 l-24 -23 5 24 c4 13 7 36 7 51
1 15 4 25 8 22 4 -2 6 11 4 29 -1 17 0 24 2 14 3 -9 8 -15 13 -12 8 5 -10 65
-20 65 -3 0 -6 -12 -7 -28 -4 -42 -8 -61 -16 -68 -3 -4 -2 -15 4 -25 6 -12 6
-19 0 -19 -5 0 -8 -9 -6 -20 2 -11 -1 -22 -6 -25 -5 -4 -7 -10 -4 -15 3 -5 1
-11 -4 -14 -6 -4 -6 -18 -1 -36 5 -18 5 -32 -1 -35 -12 -8 -12 -45 0 -45 5 0
8 8 6 18 -1 9 0 21 3 27 3 5 6 21 6 35 1 19 6 24 20 22 11 -2 15 1 11 8 -4 6
-13 9 -19 7 -7 -3 -13 1 -13 9 0 7 4 11 9 8 5 -3 15 -1 23 6 9 8 15 8 20 0 3
-6 12 -7 18 -4 7 4 1 -5 -13 -20 -13 -14 -30 -24 -37 -22 -19 7 -16 -29 3 -44
8 -8 20 -23 25 -34 9 -18 8 -18 -8 2 -17 20 -21 21 -31 9 -10 -11 -9 -17 1
-26 8 -6 18 -7 23 -3 4 4 3 0 -4 -10 -9 -11 -10 -18 -3 -23 11 -6 10 -32 0
-50 -4 -5 -5 -18 -4 -28 2 -9 -1 -15 -6 -11 -5 3 -7 9 -4 14 3 4 -2 13 -9 19
-10 8 -16 9 -21 1 -3 -5 -1 -10 6 -10 7 0 8 -4 2 -12 -12 -17 -11 -79 2 -76 6
2 9 7 7 11 -1 5 2 6 8 2 7 -4 7 -11 2 -18 -5 -7 -8 -24 -7 -39 1 -15 -2 -25
-6 -22 -4 2 -6 13 -4 24 2 10 -3 24 -10 30 -11 9 -13 6 -11 -17 1 -15 5 -33 9
-40 4 -6 3 -15 -3 -18 -6 -4 -9 -3 -8 2 2 4 -1 9 -6 11 -5 1 -11 -9 -12 -24
-2 -20 0 -23 10 -15 19 16 39 -9 24 -29 -8 -12 -9 -12 -4 2 8 26 -9 30 -29 8
-10 -11 -15 -20 -11 -20 4 0 4 -6 -1 -12 -4 -7 -8 -26 -9 -41 -2 -16 -7 -34
-13 -41 -6 -7 -7 -17 -3 -21 4 -5 2 -5 -5 -1 -8 4 -15 -2 -19 -19 -3 -14 -10
-25 -15 -25 -5 0 -9 -6 -9 -14 0 -8 -44 -59 -97 -113 -180 -183 -387 -293
-666 -354 -119 -26 -411 -37 -552 -20 -274 32 -550 120 -780 249 -58 33 -61
33 -92 18 l-33 -16 0 525 1 524 96 -81 c460 -386 1019 -493 1270 -242 54 55
102 153 109 225 9 93 11 97 47 102 l32 4 -36 1 -36 2 -6 68 c-15 154 -138 312
-362 461 -60 40 -109 77 -107 83 1 5 -3 6 -9 2 -7 -4 -18 1 -26 11 -7 11 -13
15 -13 10 0 -4 -9 0 -21 11 -12 10 -24 18 -28 16 -3 -1 -7 8 -8 20 -2 22 -1
21 6 -2 9 -25 9 -25 11 5 l2 30 8 -30 c7 -28 8 -28 9 -5 1 19 4 21 10 11 5 -8
7 -21 4 -30 -4 -11 0 -9 10 4 14 17 18 18 27 5 5 -8 10 -12 10 -7 0 12 156
-88 257 -165 51 -38 116 -95 144 -126 34 -38 41 -43 21 -16 -63 83 -197 187
-399 309 -299 182 -513 335 -617 444 -22 22 -44 37 -50 34 -6 -3 -8 -3 -4 1 4
5 -18 37 -47 72 -30 35 -66 82 -81 104 -15 22 -29 40 -31 40 -6 0 5 -18 46
-74 21 -29 36 -63 38 -84 1 -19 6 -38 9 -41 4 -3 4 6 2 22 -3 15 -1 27 3 27
12 0 11 -47 -1 -55 -10 -6 -35 41 -31 58 1 5 -4 5 -10 2 -8 -5 -8 -10 0 -18 6
-6 11 -15 11 -20 0 -13 -68 70 -112 138 -131 201 -188 422 -188 732 0 239 36
407 126 585 86 172 239 351 393 462 192 138 452 240 686 269 86 11 367 6 464
-9z m-7229 -1634 l0 -1560 -32 -1 -33 -2 35 -6 35 -6 6 -95 c24 -351 187 -516
492 -496 109 8 224 34 286 66 l41 20 0 1820 0 1820 540 0 c297 0 540 -4 540
-8 0 -5 -13 -21 -30 -37 l-30 -29 0 -2076 0 -2076 -87 -51 c-328 -194 -700
-296 -1178 -323 -450 -26 -799 48 -1067 226 -126 84 -259 232 -339 376 -16 29
-29 48 -29 41 0 -6 -8 -10 -17 -8 -10 1 -17 8 -15 15 1 6 -2 8 -8 5 -8 -5 -6
-13 4 -24 9 -10 16 -23 16 -29 0 -6 5 -14 11 -18 7 -4 9 0 5 14 -4 11 -2 23 3
27 7 4 8 -1 4 -11 -5 -12 -3 -15 6 -9 10 6 11 3 2 -13 -6 -12 -17 -24 -24 -28
-6 -4 -9 -4 -5 0 4 5 -8 30 -27 57 -44 64 -90 186 -126 334 -60 247 -59 223
-59 2012 l0 1633 540 0 540 0 0 -1560z m6640 626 c0 -2 -7 -7 -16 -10 -8 -3
-12 -2 -9 4 6 10 25 14 25 6z m-1275 -486 c-3 -5 -13 -6 -21 -3 -12 4 -13 8
-3 14 15 9 32 2 24 -11z m555 -699 c-5 -10 -6 -22 -2 -26 4 -5 1 -5 -6 -1 -8
5 -9 13 -2 25 5 10 6 22 2 26 -4 5 -1 5 6 1 8 -5 9 -13 2 -25z m566 -467 c0
-13 -2 -22 -5 -19 -3 3 -6 17 -7 31 0 13 2 22 5 19 3 -3 6 -17 7 -31z m1580
-430 c1 -9 0 -13 -4 -10 -3 4 -7 14 -8 22 -1 9 0 13 4 10 3 -4 7 -14 8 -22z
m-9 -239 c0 -8 -4 -12 -9 -9 -5 3 -6 10 -3 15 9 13 12 11 12 -6z m-21 -31 c-3
-7 -1 -16 5 -20 6 -3 6 -10 1 -17 -5 -7 -8 -20 -7 -30 2 -9 0 -15 -5 -12 -9 6
-8 24 3 42 4 6 3 14 -2 18 -6 3 -7 13 -4 22 5 12 3 14 -7 8 -9 -5 -11 -4 -6 4
10 15 29 3 22 -15z m1 -109 c0 -8 -4 -12 -9 -9 -5 3 -6 10 -3 15 9 13 12 11
12 -6z m-30 -113 c-13 -14 -14 -21 -5 -30 7 -7 10 -12 7 -12 -3 0 -14 10 -25
22 -10 12 -14 18 -8 15 7 -4 17 0 24 8 7 8 15 15 18 15 3 0 -2 -8 -11 -18z
m-42 -221 c3 -5 2 -12 -3 -15 -5 -3 -9 1 -9 9 0 17 3 19 12 6z m-41 -207 c3
-8 2 -12 -4 -9 -6 3 -10 10 -10 16 0 14 7 11 14 -7z m-479 -2263 c3 -5 2 -12
-3 -15 -5 -3 -9 1 -9 9 0 17 3 19 12 6z m-29 -13 c-1 -7 -6 -20 -11 -28 -5 -8
-10 -18 -10 -22 0 -3 -3 -9 -7 -13 -3 -4 -5 1 -4 12 2 10 -1 24 -7 31 -6 8 -6
12 2 12 6 0 11 -5 11 -12 0 -13 14 -2 16 13 2 15 4 19 8 19 2 0 3 -6 2 -12z
m14 -33 c-7 -8 -9 -15 -5 -15 5 0 1 -8 -8 -18 -13 -15 -14 -21 -4 -32 10 -12
9 -12 -6 -1 -16 13 -16 15 -1 32 10 11 14 19 9 19 -4 0 -2 7 5 15 7 8 15 15
17 15 3 0 0 -7 -7 -15z m-29 -82 c13 -16 12 -17 -3 -4 -10 7 -18 15 -18 17 0
8 8 3 21 -13z m-19 -86 c-16 -17 -19 -26 -11 -34 8 -8 7 -13 -2 -18 -7 -5 -10
-4 -5 3 3 6 1 14 -5 17 -7 5 -3 15 12 31 12 13 25 24 27 24 3 0 -4 -10 -16
-23z m-19 -82 c4 -8 3 -16 -1 -19 -4 -3 -9 4 -9 15 -2 23 3 25 10 4z m-27 -37
c-2 -13 2 -30 8 -38 9 -13 9 -13 -6 -2 -9 7 -15 21 -13 30 2 9 4 20 4 25 1 4
3 7 6 7 3 0 3 -10 1 -22z m-31 -178 c4 -6 1 -9 -7 -8 -7 2 -12 -3 -10 -10 1
-8 -2 -11 -8 -7 -8 5 -7 11 1 21 14 17 16 17 24 4z m-59 -72 c-2 -13 1 -29 6
-35 6 -7 7 -13 3 -13 -4 0 -1 -8 6 -17 13 -16 12 -17 -3 -5 -10 8 -16 18 -15
22 1 4 -2 8 -8 9 -5 1 -11 -3 -11 -9 -1 -5 -3 -12 -4 -15 -6 -12 -6 -51 1 -60
9 -14 7 -45 -3 -39 -5 3 -6 10 -3 15 8 12 -4 31 -15 24 -6 -3 -5 -16 0 -30 13
-35 5 -31 -13 5 -9 17 -11 32 -6 36 5 3 7 9 4 14 -3 5 -1 11 5 15 6 4 8 10 5
15 -3 5 -1 11 5 15 6 4 8 10 5 15 -3 4 2 13 10 20 8 7 12 16 9 21 -3 5 -2 19
2 31 5 18 8 19 15 5 5 -8 7 -26 5 -39z m-1 -96 c-1 -9 2 -22 7 -29 6 -7 5 -14
-2 -18 -6 -4 -10 -3 -9 2 1 4 0 10 -1 13 -6 15 -6 59 1 55 4 -3 6 -13 4 -23z"/>
<path d="M14327 14860 c-14 -27 -7 -54 8 -30 4 6 10 8 15 5 5 -3 13 3 19 12 7
13 10 14 11 4 0 -8 3 -12 6 -9 8 9 -19 48 -33 48 -6 0 -18 -13 -26 -30z m39 8
c5 -7 3 -8 -6 -3 -10 6 -12 4 -6 -11 4 -10 4 -15 0 -11 -4 4 -14 1 -22 -6 -11
-9 -11 -4 2 16 21 31 22 31 32 15z"/>
<path d="M14120 14826 c0 -2 7 -7 16 -10 8 -3 12 -2 9 4 -6 10 -25 14 -25 6z"/>
<path d="M10830 6406 c0 -2 8 -10 18 -17 15 -13 16 -12 3 4 -13 16 -21 21 -21
13z"/>
<path d="M10900 6326 c0 -2 8 -10 18 -17 15 -13 16 -12 3 4 -13 16 -21 21 -21
13z"/>
<path d="M11150 6076 c0 -2 8 -10 18 -17 15 -13 16 -12 3 4 -13 16 -21 21 -21
13z"/>
<path d="M18833 5943 c3 -12 0 -24 -7 -27 -7 -3 -7 -5 2 -5 10 -1 10 -4 0 -15
-7 -8 -17 -11 -23 -8 -5 3 -4 -1 3 -10 9 -11 10 -18 2 -23 -6 -4 -10 -12 -9
-18 1 -7 -2 -21 -5 -32 -4 -11 -6 -24 -6 -29 1 -5 -3 -12 -9 -15 -6 -4 -3 -11
8 -18 16 -10 18 -8 17 15 -1 15 3 33 8 40 4 6 5 12 0 12 -4 0 3 11 16 25 18
19 21 28 12 37 -9 9 -9 15 2 27 11 13 10 20 -1 41 -13 23 -14 23 -10 3z m-5
-93 c-7 -11 -14 -17 -17 -15 -2 3 1 11 7 18 7 8 8 18 4 22 -4 5 -1 5 5 1 10
-5 10 -11 1 -26z"/>
<path d="M18674 5928 l-19 -23 23 19 c21 18 27 26 19 26 -2 0 -12 -10 -23 -22z"/>
<path d="M18629 5893 c-13 -16 -12 -17 4 -4 9 7 17 15 17 17 0 8 -8 3 -21 -13z"/>
<path d="M18589 5863 c-13 -16 -12 -17 4 -4 9 7 17 15 17 17 0 8 -8 3 -21 -13z"/>
<path d="M18535 5824 l-30 -26 33 22 c17 12 32 23 32 26 0 7 -4 5 -35 -22z"/>
<path d="M18470 5779 c-22 -18 -22 -19 -3 -10 12 6 25 16 28 21 9 15 3 12 -25
-11z"/>
<path d="M18402 5736 c-46 -33 -53 -43 -14 -20 19 10 38 25 44 32 15 17 8 14
-30 -12z"/>
<path d="M18792 5698 c-9 -9 -9 -15 0 -25 6 -8 7 -13 2 -11 -5 2 -11 -1 -12
-7 -2 -5 -9 -16 -15 -24 -10 -12 -9 -13 3 -6 18 11 44 45 46 62 3 18 -11 24
-24 11z"/>
<path d="M14526 14891 c9 -9 34 -9 34 -1 0 5 -9 8 -20 7 -10 -1 -17 -3 -14 -6z"/>
<path d="M14262 14841 c2 -19 -4 -24 -12 -11 -7 12 -9 10 -7 -7 1 -15 5 -19
13 -13 6 6 13 9 15 7 2 -1 3 0 2 2 -2 2 2 9 7 16 7 8 5 12 -5 12 -7 0 -14 -3
-13 -6z"/>
<path d="M15065 11574 c-82 -11 -154 -28 -202 -46 l-53 -19 0 -1475 0 -1475
35 26 34 27 72 -17 c89 -20 255 -21 329 -1 271 71 441 303 525 715 31 148 60
403 68 591 2 30 6 36 24 36 12 0 20 -2 18 -5 -3 -2 0 -9 5 -16 7 -8 5 -12 -5
-12 -8 0 -12 4 -9 8 2 4 0 10 -5 13 -5 3 -11 -3 -14 -14 -3 -11 -1 -18 3 -15
8 5 25 -13 25 -27 0 -3 3 -10 7 -14 4 -3 6 3 3 14 -2 12 0 24 6 27 12 8 11
220 -1 456 -24 458 -89 734 -225 949 -73 117 -216 218 -358 254 -60 16 -229
27 -282 20z"/>
<path d="M16660 11395 c0 -5 5 -17 10 -25 5 -8 10 -10 10 -5 0 6 -5 17 -10 25
-5 8 -10 11 -10 5z"/>
<path d="M16736 11210 c3 -14 11 -32 16 -40 6 -10 7 -7 2 10 -3 14 -11 32 -16
40 -6 10 -7 7 -2 -10z"/>
<path d="M16771 11110 c0 -8 4 -24 9 -35 5 -13 9 -14 9 -5 0 8 -4 24 -9 35 -5
13 -9 14 -9 5z"/>
<path d="M15923 9760 c0 -36 2 -50 4 -32 2 17 2 47 0 65 -2 17 -4 3 -4 -33z"/>
<path d="M15913 9615 c0 -22 2 -30 4 -17 2 12 2 30 0 40 -3 9 -5 -1 -4 -23z"/>
<path d="M15902 9520 c0 -14 2 -19 5 -12 2 6 2 18 0 25 -3 6 -5 1 -5 -13z"/>
<path d="M15891 9444 c0 -11 3 -14 6 -6 3 7 2 16 -1 19 -3 4 -6 -2 -5 -13z"/>
<path d="M15881 9374 c0 -11 3 -14 6 -6 3 7 2 16 -1 19 -3 4 -6 -2 -5 -13z"/>
<path d="M19290 12146 c0 -3 9 -10 20 -16 11 -6 20 -8 20 -6 0 3 -9 10 -20 16
-11 6 -20 8 -20 6z"/>
<path d="M19355 12105 c11 -9 29 -21 40 -26 l20 -10 -20 16 c-11 9 -29 21 -40
26 l-20 10 20 -16z"/>
<path d="M19420 12066 c0 -2 8 -10 18 -17 15 -13 16 -12 3 4 -13 16 -21 21
-21 13z"/>
<path d="M18076 11315 c-9 -26 -7 -32 5 -12 6 10 9 21 6 23 -2 3 -7 -2 -11
-11z"/>
<path d="M17141 11294 c0 -11 3 -14 6 -6 3 7 2 16 -1 19 -3 4 -6 -2 -5 -13z"/>
<path d="M18052 11230 c0 -14 2 -19 5 -12 2 6 2 18 0 25 -3 6 -5 1 -5 -13z"/>
<path d="M17132 11210 c0 -19 2 -27 5 -17 2 9 2 25 0 35 -3 9 -5 1 -5 -18z"/>
<path d="M18051 11014 c0 -11 3 -14 6 -6 3 7 2 16 -1 19 -3 4 -6 -2 -5 -13z"/>
<path d="M17133 10960 c0 -25 2 -35 4 -22 2 12 2 32 0 45 -2 12 -4 2 -4 -23z"/>
<path d="M18061 10974 c0 -11 3 -14 6 -6 3 7 2 16 -1 19 -3 4 -6 -2 -5 -13z"/>
<path d="M18080 10924 c0 -6 7 -19 16 -30 14 -18 14 -18 3 6 -14 31 -19 36
-19 24z"/>
<path d="M17142 10855 c0 -16 2 -22 5 -12 2 9 2 23 0 30 -3 6 -5 -1 -5 -18z"/>
<path d="M17151 10784 c0 -11 3 -14 6 -6 3 7 2 16 -1 19 -3 4 -6 -2 -5 -13z"/>
<path d="M18195 10760 c21 -22 41 -40 44 -40 3 0 -13 18 -34 40 -21 22 -41 40
-44 40 -3 0 13 -18 34 -40z"/>
<path d="M18270 10696 c0 -2 8 -10 18 -17 15 -13 16 -12 3 4 -13 16 -21 21
-21 13z"/>
<path d="M17280 10430 c6 -11 13 -20 16 -20 2 0 0 9 -6 20 -6 11 -13 20 -16
20 -2 0 0 -9 6 -20z"/>
<path d="M18890 10306 c0 -2 8 -10 18 -17 15 -13 16 -12 3 4 -13 16 -21 21
-21 13z"/>
<path d="M18960 10256 c0 -2 8 -10 18 -17 15 -13 16 -12 3 4 -13 16 -21 21
-21 13z"/>
<path d="M19000 10226 c0 -2 8 -10 18 -17 15 -13 16 -12 3 4 -13 16 -21 21
-21 13z"/>
<path d="M19055 10180 c10 -11 20 -20 23 -20 3 0 -3 9 -13 20 -10 11 -20 20
-23 20 -3 0 3 -9 13 -20z"/>
<path d="M19120 10125 c13 -14 26 -25 28 -25 3 0 -5 11 -18 25 -13 14 -26 25
-28 25 -3 0 5 -11 18 -25z"/>
<path d="M19220 10035 c30 -30 57 -55 59 -55 3 0 -19 25 -49 55 -30 30 -57 55
-59 55 -3 0 19 -25 49 -55z"/>
<path d="M19280 9967 c0 -2 15 -16 33 -33 l32 -29 -29 33 c-28 30 -36 37 -36
29z"/>
<path d="M19364 9867 c16 -20 30 -37 33 -37 7 0 -36 58 -49 66 -7 4 1 -9 16
-29z"/>
<path d="M19430 9770 c6 -11 13 -20 16 -20 2 0 0 9 -6 20 -6 11 -13 20 -16 20
-2 0 0 -9 6 -20z"/>
<path d="M19450 9737 c0 -8 60 -111 60 -104 0 11 -49 107 -55 107 -3 0 -5 -2
-5 -3z"/>
<path d="M19513 9602 c0 -12 5 -22 9 -22 11 0 10 12 -2 30 -7 12 -9 10 -7 -8z"/>
<path d="M19530 9555 c6 -8 9 -18 6 -23 -3 -5 1 -18 10 -28 14 -18 15 -18 10
4 -13 51 -18 62 -28 62 -7 0 -6 -5 2 -15z"/>
<path d="M18597 9285 c9 -19 18 -33 21 -31 4 5 -26 66 -33 66 -3 0 3 -16 12
-35z"/>
<path d="M19513 9180 c3 -11 1 -20 -5 -20 -6 0 -8 -13 -6 -30 3 -17 0 -30 -6
-30 -6 0 -4 -5 4 -10 12 -8 12 -10 -5 -10 -16 0 -17 -2 -5 -10 10 -6 17 -5 23
6 5 8 12 12 16 9 12 -7 30 18 27 37 -1 10 -10 26 -20 37 -10 11 -15 25 -11 30
3 6 1 11 -6 11 -6 0 -9 -8 -6 -20z m18 -43 c-13 -13 -15 -30 -2 -22 5 3 13 0
17 -7 4 -7 4 -10 -1 -6 -4 4 -14 3 -20 -2 -9 -8 -12 -2 -10 22 3 41 3 40 16
32 8 -4 8 -9 0 -17z"/>
<path d="M18641 9164 c0 -11 3 -14 6 -6 3 7 2 16 -1 19 -3 4 -6 -2 -5 -13z"/>
<path d="M18652 9105 c0 -16 2 -22 5 -12 2 9 2 23 0 30 -3 6 -5 -1 -5 -18z"/>
<path d="M18652 8935 c0 -16 2 -22 5 -12 2 9 2 23 0 30 -3 6 -5 -1 -5 -18z"/>
<path d="M18641 8874 c0 -11 3 -14 6 -6 3 7 2 16 -1 19 -3 4 -6 -2 -5 -13z"/>
<path d="M19496 8861 c-4 -5 -2 -12 3 -15 5 -4 12 -2 15 3 4 5 2 12 -3 15 -5
4 -12 2 -15 -3z"/>
<path d="M18616 8805 c-9 -26 -7 -32 5 -12 6 10 9 21 6 23 -2 3 -7 -2 -11 -11z"/>
<path d="M19427 8718 c5 -7 8 -19 7 -25 -1 -7 -2 -18 -3 -24 0 -5 -7 -7 -13
-3 -10 6 -10 4 0 -8 8 -10 9 -18 3 -22 -6 -4 -7 -14 -4 -23 5 -12 3 -14 -8 -8
-12 7 -12 6 -1 -7 9 -12 10 -18 2 -23 -8 -5 -7 -11 2 -23 11 -14 10 -15 -6 -9
-16 6 -17 5 -7 -7 8 -10 9 -16 1 -21 -6 -3 -8 -10 -5 -15 3 -5 1 -11 -5 -15
-7 -4 -7 -12 0 -26 6 -10 7 -19 2 -19 -5 0 -8 -12 -7 -27 2 -32 -12 -56 -28
-46 -6 4 -7 1 -1 -8 14 -23 17 -62 3 -53 -8 5 -9 3 -4 -5 11 -19 26 1 30 40 2
19 4 35 5 37 2 1 4 7 5 12 1 6 4 11 5 13 1 1 3 16 4 33 1 17 6 38 12 45 7 8
10 23 8 33 -1 11 0 25 4 30 4 6 7 31 8 56 1 25 3 45 4 45 1 0 4 17 5 37 2 25
-2 39 -13 43 -11 4 -12 2 -5 -7z m0 -153 c0 -8 -4 -12 -9 -9 -5 3 -6 10 -3 15
9 13 12 11 12 -6z m-11 -60 c-1 -8 -8 -21 -16 -28 -10 -10 -11 -9 -4 3 5 8 9
18 10 23 3 14 4 17 8 17 2 0 3 -7 2 -15z"/>
<path d="M19459 8718 c0 -7 -2 -21 -4 -30 -2 -10 1 -18 6 -18 5 0 8 -3 7 -7
-2 -5 1 -10 6 -13 12 -7 18 38 6 45 -6 4 -8 10 -5 15 3 5 1 11 -5 15 -5 3 -10
0 -11 -7z"/>
<path d="M18524 8658 l-19 -23 23 19 c21 18 27 26 19 26 -2 0 -12 -10 -23 -22z"/>
<path d="M19465 8381 c-3 -5 0 -13 5 -16 7 -5 6 -11 -5 -19 -15 -10 -14 -12 4
-12 11 0 18 2 16 5 -3 2 0 10 7 18 9 11 8 13 -3 11 -8 -2 -13 3 -11 10 2 14
-4 16 -13 3z"/>
<path d="M10630 8421 c0 -6 4 -13 10 -16 6 -3 7 1 4 9 -7 18 -14 21 -14 7z"/>
<path d="M18741 5554 c0 -11 3 -14 6 -6 3 7 2 16 -1 19 -3 4 -6 -2 -5 -13z"/>
<path d="M18729 5513 c-13 -16 -12 -17 4 -4 9 7 17 15 17 17 0 8 -8 3 -21 -13z"/>
<path d="M18709 5455 c-1 -3 -2 -8 -3 -12 -1 -5 -5 -15 -10 -23 -7 -12 -6 -13
4 -3 13 12 23 43 14 43 -2 0 -5 -2 -5 -5z"/>
<path d="M18610 4373 c-48 -7 -145 -46 -185 -73 -54 -37 -129 -118 -153 -166
-120 -236 -19 -528 219 -633 224 -99 490 1 595 224 66 138 56 310 -24 435 -97
152 -283 240 -452 213z m233 -108 c71 -35 150 -117 185 -192 23 -50 27 -71 27
-153 0 -86 -3 -101 -31 -160 -74 -157 -231 -241 -405 -218 -114 14 -235 101
-287 204 -106 212 6 469 238 545 14 5 68 7 120 6 81 -3 103 -7 153 -32z"/>
<path d="M18520 3921 l0 -281 45 0 45 0 0 120 c0 75 4 120 10 120 6 0 45 -54
88 -120 l77 -120 53 0 c28 0 52 3 52 6 0 3 -33 54 -73 113 -40 58 -77 111 -81
118 -4 8 5 17 27 26 18 8 45 29 60 46 36 43 38 122 4 171 -39 59 -78 74 -199
79 l-108 3 0 -281z m218 179 c24 -22 30 -77 12 -110 -12 -22 -60 -40 -106 -40
l-34 0 0 85 0 85 53 0 c40 0 59 -5 75 -20z"/>
</g>
</svg>
